<svg width="805" height="135" viewBox="0 0 805 135" fill="none" xmlns="http://www.w3.org/2000/svg">
<path d="M100.505 89.2679L106.886 111.313L123.582 129.339C125.878 128.003 127.783 126.084 129.105 123.777L144.641 96.827C145.966 94.5201 146.662 91.9044 146.659 89.2426L122.825 84.6162L100.505 89.2679Z" fill="#EA4335"/>
<path d="M96.4191 2.02248C94.1177 0.69454 91.5082 -0.00294861 88.8528 9.36929e-06H57.8313C55.1771 0.00642532 52.57 0.703283 50.265 2.02248L56.9485 24.5986L73.2664 41.9668L89.7103 24.27L96.4191 2.02248Z" fill="#188038"/>
<path d="M46.1793 89.2679L22.3709 83.8072L9.34638e-06 89.2679C-0.00294156 91.9297 0.692919 94.5454 2.01768 96.8523L17.5537 123.802C18.8762 126.11 20.7811 128.028 23.0771 129.364L39.521 112.375L46.1793 89.2679Z" fill="#1967D2"/>
<path d="M101.968 7.55906C100.645 5.25153 98.7403 3.33342 96.4443 1.99724L73.342 42.0932L100.505 89.2426H146.659C146.662 86.5809 145.966 83.9652 144.641 81.6583L101.968 7.55906Z" fill="#FBBC04"/>
<path d="M100.505 89.2679H46.1793L23.1022 129.339C25.4036 130.667 28.0131 131.364 30.6685 131.361H116.016C118.671 131.364 121.281 130.667 123.582 129.339L100.505 89.2679Z" fill="#4285F4"/>
<path d="M73.342 42.0932L50.265 2.02248C47.9723 3.35167 46.0677 5.2608 44.7417 7.55906L2.04289 81.7089C0.718126 84.0158 0.0223039 86.6315 0.0252548 89.2933H46.1793L73.342 42.0932Z" fill="#34A853"/>
<path d="M502.095 61.5344C504.353 61.3955 506.601 61.9285 508.558 63.0665C510.514 64.2045 512.092 65.8968 513.092 67.9306L486.862 78.8015C486.862 66.5907 495.488 61.5344 502.095 61.5344ZM503.003 97.3326C500.046 97.4434 497.123 96.6617 494.614 95.0886C492.105 93.5155 490.125 91.2235 488.93 88.5095L527.72 72.4306L526.433 69.1188C523.911 62.6215 516.648 50.5876 501.616 50.5876C486.585 50.5876 474.252 62.3434 474.252 79.6863C474.163 83.5105 474.845 87.3134 476.257 90.8673C477.668 94.4212 479.78 97.6532 482.467 100.37C485.154 103.086 488.359 105.232 491.892 106.678C495.425 108.124 499.213 108.84 503.029 108.785C507.806 108.807 512.515 107.643 516.735 105.398C520.956 103.153 524.556 99.8957 527.215 95.9169L517.329 89.3185C515.841 91.775 513.745 93.804 511.243 95.2083C508.742 96.6125 505.921 97.3444 503.054 97.3326H503.003ZM451.755 20.8317H464.365V108.81H451.755V20.8317ZM351.88 97.3326C348.346 97.5864 344.817 96.768 341.753 94.9841C338.689 93.2001 336.231 90.533 334.699 87.3299C333.168 84.1267 332.633 80.5357 333.165 77.0239C333.697 73.5121 335.271 70.242 337.682 67.6391C340.094 65.0362 343.23 63.2209 346.685 62.4293C350.139 61.6376 353.751 61.9063 357.051 63.2005C360.352 64.4946 363.187 66.7542 365.188 69.6854C367.19 72.6166 368.265 76.0837 368.274 79.6358C368.393 81.8853 368.059 84.1358 367.293 86.2536C366.528 88.3714 365.345 90.3134 363.816 91.9642C362.287 93.6149 360.442 94.9408 358.392 95.863C356.341 96.7852 354.127 97.285 351.88 97.3326ZM351.88 50.6129C346.143 50.6329 340.541 52.3565 335.78 55.566C331.02 58.7756 327.315 63.3271 325.133 68.6459C322.951 73.9648 322.391 79.8123 323.522 85.4502C324.654 91.0881 327.426 96.2636 331.49 100.323C335.554 104.382 340.727 107.144 346.355 108.258C351.983 109.373 357.815 108.791 363.113 106.586C368.412 104.38 372.94 100.65 376.125 95.8675C379.31 91.0844 381.01 85.4625 381.01 79.7116C381.065 75.8678 380.348 72.0522 378.902 68.4917C377.456 64.9313 375.31 61.6987 372.593 58.9863C369.875 56.2739 366.641 54.137 363.083 52.7029C359.524 51.2688 355.715 50.5667 351.88 50.6383V50.6129ZM414.932 97.3326C406.13 97.3326 399.447 89.7483 399.447 79.6358C399.447 69.5233 406.13 61.939 414.932 61.939C423.734 61.939 430.418 69.5233 430.418 79.6358C430.418 89.7483 423.709 97.3326 414.932 97.3326ZM429.56 57.1355H429.106C427.164 55.0278 424.797 53.3584 422.162 52.2382C419.527 51.1179 416.684 50.5726 413.823 50.6383C399.346 50.6383 386.71 63.2789 386.71 79.7369C386.71 96.195 399.321 108.836 413.823 108.836C416.695 108.912 419.55 108.361 422.189 107.222C424.828 106.083 427.188 104.382 429.106 102.237H429.56V106.282C429.56 117.406 423.608 123.347 414.075 123.347C410.886 123.267 407.793 122.239 405.189 120.394C402.584 118.548 400.586 115.968 399.447 112.982L388.35 117.583C390.456 122.679 394.026 127.032 398.607 130.089C403.188 133.146 408.572 134.768 414.075 134.749C429.006 134.749 441.641 125.926 441.641 104.411V52.2057H429.56V57.1355ZM286.811 97.3326C283.276 97.5864 279.747 96.768 276.683 94.9841C273.619 93.2001 271.161 90.533 269.629 87.3299C268.098 84.1267 267.563 80.5357 268.095 77.0239C268.627 73.5121 270.201 70.242 272.613 67.6391C275.024 65.0362 278.161 63.2209 281.615 62.4293C285.07 61.6376 288.682 61.9063 291.982 63.2005C295.282 64.4946 298.117 66.7542 300.119 69.6854C302.12 72.6166 303.195 76.0837 303.204 79.6358C303.323 81.8853 302.99 84.1358 302.224 86.2536C301.458 88.3714 300.275 90.3134 298.746 91.9642C297.217 93.6149 295.373 94.9408 293.322 95.863C291.272 96.7852 289.058 97.285 286.811 97.3326ZM286.811 50.6129C281.074 50.6329 275.471 52.3565 270.711 55.566C265.95 58.7756 262.245 63.3271 260.063 68.6459C257.882 73.9648 257.321 79.8123 258.453 85.4502C259.584 91.0881 262.357 96.2636 266.421 100.323C270.484 104.382 275.657 107.144 281.285 108.258C286.914 109.373 292.745 108.791 298.044 106.586C303.342 104.38 307.87 100.65 311.055 95.8675C314.241 91.0844 315.941 85.4625 315.941 79.7116C315.999 75.8657 315.284 72.0473 313.84 68.4838C312.395 64.9204 310.25 61.6848 307.532 58.9698C304.814 56.2547 301.579 54.1156 298.019 52.6799C294.459 51.2442 290.647 50.5413 286.811 50.6129ZM208.097 60.7254V73.0374H237.454C237.005 78.8113 234.653 84.2718 230.77 88.5601C227.825 91.5679 224.283 93.9231 220.373 95.4734C216.463 97.0236 212.273 97.7345 208.072 97.5602C199.905 96.8401 192.303 93.0793 186.766 87.019C181.229 80.9588 178.157 73.0389 178.157 64.821C178.157 56.603 181.229 48.6832 186.766 42.623C192.303 36.5628 199.905 32.8019 208.072 32.0818C216.317 31.9796 224.269 35.1514 230.19 40.905L238.841 32.2335C234.826 28.1579 230.031 24.9373 224.743 22.7651C219.456 20.593 213.785 19.514 208.072 19.5929C202.078 19.4506 196.117 20.511 190.538 22.7117C184.96 24.9124 179.877 28.209 175.588 32.4077C171.299 36.6063 167.891 41.6222 165.564 47.1604C163.237 52.6986 162.038 58.6473 162.038 64.6566C162.038 70.666 163.237 76.6147 165.564 82.1529C167.891 87.6911 171.299 92.707 175.588 96.9057C179.877 101.104 184.96 104.401 190.538 106.602C196.117 108.802 202.078 109.863 208.072 109.72C213.896 109.957 219.703 108.953 225.112 106.774C230.52 104.595 235.406 101.291 239.446 97.0798C247.542 88.9646 250.089 77.5121 250.089 68.2845C250.114 65.7411 249.895 63.2012 249.434 60.7001L208.097 60.7254Z" fill="#5F6368"/>
<path d="M564.113 106.889V29.0734H587.846C599.7 29.0734 609.225 32.6633 616.421 39.8431C623.365 47.5771 627.208 57.614 627.208 68.0191C627.208 78.4242 623.365 88.461 616.421 96.195C609.225 103.324 599.7 106.889 587.846 106.889H564.113ZM574.202 38.6297V97.3074H587.972C597.001 97.3074 604.122 94.7202 609.334 89.546C614.546 84.3718 617.144 77.1835 617.127 67.9811C617.127 58.8462 614.53 51.6748 609.334 46.4669C604.139 41.2589 597.018 38.655 587.972 38.655L574.202 38.6297Z" fill="#5F6368"/>
<path d="M646.333 106.889H636.245V53.6468H645.778V62.3182H646.207C647.405 59.2692 649.602 56.7194 652.437 55.0878C655.181 53.2224 658.403 52.1869 661.718 52.1046C664.236 52.0408 666.741 52.488 669.082 53.4192L666.056 63.1019C664.166 62.4997 662.184 62.2429 660.204 62.3435C658.336 62.3494 656.492 62.7616 654.798 63.5516C653.104 64.3416 651.601 65.4907 650.394 66.9194C647.675 69.7874 646.181 73.6067 646.232 77.5628L646.333 106.889Z" fill="#5F6368"/>
<path d="M689.839 35.2673C689.825 36.896 689.249 38.4697 688.209 39.721C687.169 40.9724 685.729 41.8243 684.133 42.1323C682.537 42.4402 680.885 42.1852 679.455 41.4104C678.026 40.6356 676.908 39.3888 676.292 37.8818C675.676 36.3748 675.599 34.7004 676.074 33.1428C676.549 31.5853 677.547 30.2406 678.899 29.3371C680.251 28.4337 681.874 28.0271 683.491 28.1864C685.108 28.3457 686.62 29.061 687.771 30.211C688.446 30.8646 688.978 31.6515 689.334 32.5218C689.69 33.3921 689.862 34.3269 689.839 35.2673ZM687.771 53.6468V106.889H677.683V53.6468H687.771Z" fill="#5F6368"/>
<path d="M727.821 106.889H717.733L696.27 53.6467H707.115L722.727 94.9562H722.954L738.792 53.6467H749.41L727.821 106.889Z" fill="#5F6368"/>
<path d="M779.474 108.633C775.873 108.742 772.29 108.081 768.964 106.695C765.637 105.309 762.643 103.229 760.18 100.594C755.098 95.1149 752.379 87.8466 752.613 80.369C752.38 72.9285 755.018 65.6844 759.978 60.144C762.414 57.6193 765.326 55.6038 768.544 54.2143C771.763 52.8247 775.224 52.0887 778.728 52.0487C782.232 52.0087 785.71 52.6657 788.959 53.9814C792.208 55.2972 795.165 57.2457 797.658 59.7142C802.315 64.7705 804.644 71.925 804.644 81.1779V82.2651H762.777C762.744 84.615 763.187 86.9473 764.08 89.1202C764.973 91.2932 766.298 93.2615 767.973 94.9057C769.546 96.4546 771.411 97.6746 773.459 98.4948C775.507 99.3151 777.697 99.7192 779.902 99.6838C786.258 99.6838 791.243 96.4984 794.858 90.1275L803.736 94.4759C801.471 98.8432 798.039 102.493 793.824 105.018C789.461 107.518 784.497 108.768 779.474 108.633ZM763.534 73.8464H794.001C793.895 72.0952 793.443 70.3825 792.673 68.8073C791.902 67.2321 790.828 65.8257 789.511 64.6693C786.466 62.1256 782.575 60.8257 778.616 61.0288C775.061 60.9549 771.604 62.197 768.906 64.5176C766.131 66.9427 764.241 70.225 763.534 73.8464Z" fill="#5F6368"/>
</svg>
