<svg width="804" height="135" viewBox="0 0 804 135" fill="none" xmlns="http://www.w3.org/2000/svg">
<path d="M73.841 133.923C60.0578 130.479 52.3789 119.522 52.3546 103.266C52.3469 98.0688 52.7229 95.5785 54.0202 92.2356C57.2003 84.0413 65.6199 77.8593 76.699 75.5837C82.2119 74.4515 83.9103 73.2357 83.9103 70.4218C83.9103 69.5389 84.5665 66.9094 85.3684 64.5785C89.0115 53.9896 95.7568 45.1623 102.964 41.5513C110.508 37.772 114.316 36.9198 123.442 36.9688C136.401 37.0383 142.867 39.8496 151.91 49.3467L156.884 54.5698L161.339 53.0279C182.903 45.5652 204.4 58.2686 206.133 79.4982L206.607 85.3057L210.853 86.8272C222.98 91.1722 228.68 100.296 227.647 113.708C226.971 122.479 222.87 129.482 216.374 132.959L213.319 134.593L145.445 134.724C93.2869 134.824 76.7068 134.639 73.841 133.923Z" fill="#094AB1"/>
<path d="M22.9591 124.546C14.9125 122.634 6.38644 115.527 2.38836 107.399C0.120427 102.789 0 102.111 0 93.9547C0 86.1968 0.193542 84.9523 1.99898 81.1002C5.80503 72.9798 13.0974 67.1123 22.2471 64.8083C24.1781 64.3221 25.9926 63.546 26.2793 63.0837C26.566 62.6214 26.8845 60.1028 26.987 57.4869C27.6239 41.2403 38.2837 26.9252 53.1683 22.3278C61.2098 19.8441 71.3124 20.455 80.059 23.9541C82.833 25.0638 82.5206 25.3018 88.3861 17.6108C91.8549 13.0623 98.8639 7.40555 104.601 4.52398C110.793 1.41408 117.233 -0.018694 124.934 0.000184063C146.458 0.052992 165.008 13.5159 171.867 34.0628C174.059 40.6277 173.95 42.4662 171.365 42.5204C170.237 42.5441 167.004 43.1653 164.182 43.901L159.05 45.2386L154.367 40.5559C141.163 27.3525 119.615 24.4987 101.297 33.5274C93.9792 37.1343 88.0985 42.3127 83.6565 49.0611C80.4898 53.8723 76.4521 62.8476 76.4521 65.076C76.4521 66.6569 75.1721 67.4468 69.7053 69.2397C52.7798 74.7904 42.9008 87.6092 42.9076 104.012C42.9099 109.982 44.4475 117.287 46.582 121.471C47.3866 123.048 47.8356 124.548 47.5797 124.804C46.9252 125.459 25.8701 125.238 22.9591 124.546Z" fill="#094AB1"/>
<path d="M303.707 120.629C290.377 120.629 279.702 116.236 271.683 107.452C263.663 98.6676 259.653 87.2391 259.653 73.1665C259.653 58.0452 263.74 45.983 271.912 36.98C280.085 27.9771 291.207 23.4757 305.28 23.4756C318.26 23.4757 328.716 27.846 336.648 36.5867C344.58 45.3274 348.546 56.7559 348.546 70.8721C348.546 86.2121 344.482 98.3398 336.353 107.255C328.224 116.171 317.342 120.629 303.707 120.629ZM304.493 33.44C294.616 33.4401 286.597 37.0019 280.434 44.1255C274.272 51.2493 271.191 60.6018 271.191 72.1832C271.191 83.7647 274.196 93.0845 280.205 100.143C286.214 107.201 294.048 110.73 303.707 110.73C314.021 110.73 322.149 107.365 328.093 100.634C334.037 93.9039 337.009 84.4858 337.009 72.3799C337.009 59.9681 334.124 50.3752 328.355 43.6011C322.586 36.8271 314.632 33.4401 304.493 33.44Z" fill="#094AB1"/>
<path d="M421.313 119.055H410.562V80.7707C410.562 66.5234 405.361 59.3997 394.96 59.3997C389.584 59.3997 385.137 61.421 381.619 65.4635C378.101 69.5062 376.342 74.6085 376.342 80.7707V119.055H365.591V51.9264H376.342V63.0708H376.604C381.674 54.5923 389.016 50.3531 398.631 50.353C405.973 50.3531 411.589 52.724 415.478 57.4658C419.368 62.2077 421.313 69.0582 421.313 78.0174V119.055Z" fill="#094AB1"/>
<path d="M495.587 88.1785H448.19C448.365 95.6518 450.375 101.421 454.221 105.485C458.067 109.55 463.355 111.582 470.086 111.582C477.646 111.582 484.595 109.091 490.932 104.108V114.204C485.032 118.487 477.231 120.628 467.529 120.628C458.045 120.628 450.594 117.58 445.175 111.483C439.756 105.387 437.046 96.8099 437.046 85.7529C437.046 75.3078 440.007 66.7965 445.929 60.2191C451.85 53.6418 459.204 50.3531 467.988 50.353C476.772 50.3531 483.568 53.1938 488.376 58.8752C493.183 64.5567 495.587 72.4452 495.587 82.5407V88.1785ZM484.574 79.0663C484.53 72.8604 483.033 68.0312 480.083 64.5785C477.133 61.126 473.036 59.3997 467.791 59.3997C462.722 59.3997 458.417 61.2134 454.877 64.8408C451.337 68.4682 449.152 73.21 448.321 79.0663H484.574Z" fill="#094AB1"/>
<path d="M513.353 119.055V25.0488H539.312C572.44 25.0489 589.003 40.3233 589.003 70.872C589.003 85.3816 584.404 97.0395 575.204 105.846C566.004 114.652 553.691 119.055 538.264 119.055H513.353ZM524.366 35.0132V109.091H538.395C550.719 109.091 560.312 105.791 567.174 99.1919C574.035 92.5927 577.466 83.2402 577.466 71.1342C577.466 47.0536 564.66 35.0133 539.05 35.0132H524.366Z" fill="#094AB1"/>
<path d="M641.054 62.8083C639.175 61.3661 636.466 60.645 632.926 60.645C628.337 60.645 624.502 62.8083 621.421 67.1349C618.339 71.4616 616.799 77.3616 616.799 84.8349V119.055H606.048V51.9261H616.799V65.7583H617.061C618.591 61.0383 620.929 57.3563 624.076 54.7122C627.222 52.0682 630.74 50.7462 634.63 50.7461C637.427 50.7462 639.568 51.0521 641.054 51.6639V62.8083Z" fill="#094AB1"/>
<path d="M658.23 34.8822C656.307 34.8823 654.668 34.2268 653.313 32.9156C651.959 31.6046 651.281 29.9438 651.281 27.9334C651.281 25.9231 651.959 24.2514 653.313 22.9184C654.668 21.5855 656.307 20.919 658.23 20.9189C660.197 20.919 661.868 21.5855 663.245 22.9184C664.622 24.2514 665.31 25.9231 665.31 27.9334C665.31 29.8564 664.622 31.4953 663.245 32.85C661.868 34.2049 660.197 34.8823 658.23 34.8822ZM663.475 119.055H652.723V51.9266H663.475V119.055Z" fill="#094AB1"/>
<path d="M738.01 51.9258L711.263 119.054H700.709L675.273 51.9258H687.073L704.118 100.699C705.385 104.283 706.172 107.407 706.478 110.073H706.74C707.177 106.708 707.876 103.671 708.838 100.961L726.669 51.9258H738.01Z" fill="#094AB1"/>
<path d="M803.434 88.1785H756.038C756.213 95.6518 758.223 101.421 762.069 105.485C765.915 109.55 771.203 111.582 777.933 111.582C785.494 111.582 792.443 109.091 798.78 104.108V114.204C792.88 118.487 785.079 120.628 775.377 120.628C765.893 120.628 758.442 117.58 753.022 111.483C747.603 105.387 744.894 96.8099 744.894 85.7529C744.894 75.3078 747.854 66.7965 753.776 60.2191C759.698 53.6418 767.051 50.3531 775.836 50.353C784.62 50.3531 791.416 53.1938 796.223 58.8752C801.031 64.5567 803.434 72.4452 803.434 82.5407V88.1785ZM792.421 79.0663C792.377 72.8604 790.881 68.0312 787.931 64.5785C784.981 61.126 780.883 59.3997 775.639 59.3997C770.569 59.3997 766.265 61.2134 762.725 64.8408C759.185 68.4682 756.999 73.21 756.169 79.0663H792.421Z" fill="#094AB1"/>
</svg>
